<svg width="199" height="188" viewBox="0 0 199 188" fill="none" xmlns="http://www.w3.org/2000/svg">
<g style="mix-blend-mode:multiply">
<path d="M15.5101 25.2103L9.48015 19.1703H4.12015L10.1401 25.2103H15.5101Z" fill="#CCCCCC"/>
</g>
<g style="mix-blend-mode:multiply">
<path d="M16.0001 19.1903L15.9201 35.0003H9.36014L15.3601 41.0003H21.9101L22.0301 25.1903H27.4001C27.7001 23.1003 27.9801 21.0203 28.2801 18.8603L22.4901 13.0403C22.5208 12.9768 22.5577 12.9165 22.6001 12.8603C22.5952 12.8338 22.5952 12.8067 22.6001 12.7803C22.6316 12.7387 22.6686 12.7017 22.7101 12.6703C22.7875 12.5743 22.8785 12.49 22.9801 12.4203L23.1401 12.3203C23.2338 12.2584 23.3345 12.2081 23.4401 12.1703L23.6201 12.1003L24.0001 12.0003H24.1701C24.3689 11.9694 24.5692 11.9494 24.7701 11.9403H26.1601H28.4601V6.30026L22.4601 0.300262V5.93026H20.1801C19.7201 5.93026 19.2501 5.93026 18.7901 5.93026C18.5904 5.91457 18.3898 5.91457 18.1901 5.93026L18.0001 6.00026C17.8745 6.01961 17.7507 6.04972 17.6301 6.09026L17.4501 6.16026C17.3422 6.20007 17.2383 6.2503 17.1401 6.31026L16.9901 6.41026C16.8898 6.48539 16.7961 6.56903 16.7101 6.66026C16.7101 6.66026 16.6501 6.66026 16.6301 6.74026L16.5701 6.82026C16.53 6.87459 16.4932 6.93137 16.4601 6.99026C16.4309 7.03373 16.4074 7.08078 16.3901 7.13026V7.22026V7.29026C16.3462 7.41131 16.3094 7.53486 16.2801 7.66026C16.2801 7.66026 16.2801 7.77026 16.2801 7.82026C16.2801 7.87026 16.2801 8.04026 16.2301 8.16026C16.1801 8.28026 16.2301 8.27026 16.2301 8.32026C16.0701 9.74026 16.0001 12.7003 16.0001 12.8603L21.4601 18.3403L21.3401 19.1903H16.0001Z" fill="#CCCCCC"/>
</g>
<path d="M17.9301 0.00026037C18.8601 0.00026037 19.8101 0.0502604 20.7401 0.0902604C21.3501 0.0902604 21.9601 0.20026 22.5301 0.27026V5.90026H20.1801C19.7201 5.90026 19.2501 5.90026 18.7901 5.90026C17.3001 5.90026 16.2001 6.51026 16.1201 8.37026C16.0701 9.74026 16.0001 12.7003 16.0001 12.8603H22.2201C21.9201 15.0203 21.6401 17.1003 21.3401 19.1903H16.0001L15.9201 35.0003H9.36015L9.48015 19.1603H4.12015V12.8603H9.56015V12.4003C9.56015 11.1303 9.56015 9.86026 9.56015 8.59026C9.56515 7.78258 9.63538 6.97663 9.77015 6.18026C9.91231 5.24409 10.2393 4.34555 10.732 3.53695C11.2247 2.72834 11.8733 2.02581 12.6401 1.47026C14.0368 0.500271 15.6997 -0.0132625 17.4001 0.00026037H17.9301Z" fill="white"/>
<g style="mix-blend-mode:multiply">
<path d="M87.0002 13.4503C86.5602 13.0103 86.1402 12.5503 85.7302 12.0603L79.7302 6.06026C80.1402 6.54026 80.5602 7.06026 80.9902 7.44026L87.0002 13.4503Z" fill="#CCCCCC"/>
</g>
<g style="mix-blend-mode:multiply">
<path d="M80.6902 14.0603L86.6902 20.0603C87.0021 20.3526 87.3365 20.6201 87.6902 20.8603L81.6902 14.8103C81.3342 14.592 80.9994 14.3409 80.6902 14.0603Z" fill="#CCCCCC"/>
</g>
<g style="mix-blend-mode:multiply">
<path d="M80.6301 18.8703L86.6301 24.9203C87.5557 25.8297 88.7272 26.4484 90.0001 26.7003L84.0001 20.6503C82.7272 20.3984 81.5557 19.7797 80.6301 18.8703Z" fill="#CCCCCC"/>
</g>
<g style="mix-blend-mode:multiply">
<path d="M114.44 12.5103C114.44 12.4203 114.52 12.3203 114.57 12.2303C114.62 12.1403 114.73 11.9103 114.8 11.7303C114.87 11.5503 114.89 11.4803 114.93 11.3603L108.93 5.36026C108.828 5.66188 108.704 5.95593 108.56 6.24026L108.44 6.51026C108.322 6.71442 108.192 6.91143 108.05 7.10026C107.97 7.21026 107.9 7.34026 107.81 7.45026C107.65 7.64557 107.476 7.82936 107.29 8.00026C107.209 8.0951 107.122 8.18524 107.03 8.27026C106.741 8.53359 106.43 8.77117 106.1 8.98026L107.61 10.4903C107.291 10.7774 106.957 11.0478 106.61 11.3003L106.5 11.5203C106.5 12.1103 106.5 12.7003 106.5 13.2903C106.5 13.6803 106.44 14.0703 106.39 14.4703C106.32 15.0303 106.21 15.5903 106.09 16.1403C106.02 16.4803 105.93 16.8203 105.83 17.1403C105.83 17.2703 105.77 17.4003 105.73 17.5303C105.59 18.0003 105.43 18.4603 105.26 18.9203C105.09 19.3803 104.86 19.9203 104.64 20.3803C104.42 20.8403 104.2 21.2403 103.96 21.6603C103.72 22.0803 103.62 22.2303 103.44 22.5103L103.09 23.0603C102.88 23.3703 102.65 23.6703 102.41 23.9703C102.31 24.1103 102.21 24.2503 102.1 24.3803C101.755 24.8123 101.388 25.2262 101 25.6203C98.6378 28.0793 95.6233 29.8138 92.3101 30.6203L87.1701 25.4603C85.4515 25.4088 83.8201 24.6917 82.6201 23.4603L88.6201 29.5103C89.1995 30.0854 89.8768 30.5527 90.6201 30.8903C89.7731 31.029 88.918 31.1125 88.0601 31.1403H87.4601C83.9222 31.1504 80.4542 30.1551 77.4601 28.2703L77.3001 28.1703L83.3001 34.2203L83.4601 34.3203C86.4528 36.2081 89.9217 37.2037 93.4601 37.1903H94.0601C95.3078 37.1597 96.5499 37.0124 97.7701 36.7503C101.275 36.0099 104.477 34.233 106.96 31.6503C107.34 31.2603 107.71 30.8403 108.06 30.4203C108.16 30.2903 108.24 30.1603 108.34 30.0403C108.57 29.7403 108.8 29.4403 109.01 29.1303C109.22 28.8203 109.25 28.7603 109.36 28.5803C109.47 28.4003 109.72 28.0103 109.89 27.7203L109.96 27.6003C110.17 27.2203 110.37 26.8403 110.56 26.4503C110.75 26.0603 111 25.4503 111.18 24.9903C111.35 24.5403 111.5 24.0903 111.64 23.6303C111.64 23.5003 111.7 23.3703 111.74 23.2403C111.82 22.9403 111.91 22.6503 111.98 22.3403C111.975 22.3038 111.975 22.2667 111.98 22.2303C112.1 21.6703 112.2 21.1203 112.27 20.5503C112.27 20.2303 112.35 19.9103 112.38 19.5503V19.3403C112.41 18.7473 112.41 18.1532 112.38 17.5603L112.49 17.3503C112.944 17.027 113.375 16.6728 113.78 16.2903C113.91 16.1603 114.02 16.0203 114.15 15.8903C114.28 15.7603 114.67 15.3703 114.9 15.0903L115.02 14.9503C115.25 14.6703 115.45 14.3803 115.66 14.0703L114.25 12.6603L114.44 12.5103Z" fill="#CCCCCC"/>
</g>
<path d="M109.79 7.93026C109.556 8.30734 109.291 8.66514 109 9.00026C108.298 9.87378 107.481 10.6476 106.57 11.3003L106.46 11.5203C106.49 12.506 106.44 13.4926 106.31 14.4703C106.035 16.522 105.445 18.5189 104.56 20.3903C103.658 22.2992 102.456 24.0513 101 25.5803C98.5151 28.1549 95.3191 29.9305 91.8202 30.6803C90.5996 30.939 89.3575 31.083 88.1102 31.1103H87.5102C83.9722 31.1204 80.5042 30.1251 77.5102 28.2403L77.3502 28.1403C77.8681 28.1996 78.3889 28.2296 78.9102 28.2303C80.6592 28.2332 82.3918 27.8935 84.0102 27.2303C85.1513 26.7651 86.2217 26.1423 87.1902 25.3803C85.8047 25.3601 84.4609 24.9038 83.3497 24.0762C82.2384 23.2486 81.4163 22.0919 81.0002 20.7703C81.4087 20.8498 81.8239 20.89 82.2402 20.8903C82.7825 20.8913 83.323 20.8275 83.8502 20.7003L83.9502 20.6503C83.0662 20.4749 82.2283 20.1177 81.4898 19.6012C80.7513 19.0848 80.1282 18.4204 79.6602 17.6503C78.9895 16.5964 78.6419 15.3693 78.6602 14.1203C79.5828 14.6193 80.6114 14.8902 81.6602 14.9103C80.2708 13.9627 79.292 12.524 78.921 10.8837C78.5499 9.2435 78.814 7.52357 79.6602 6.07026C81.3178 8.13088 83.391 9.8192 85.7445 11.0253C88.0981 12.2314 90.6794 12.9282 93.3202 13.0703C93.3202 12.8003 93.2402 12.5703 93.2102 12.3403C93.0158 10.8207 93.3705 9.28161 94.2102 8.00026C94.7026 7.20167 95.3628 6.51973 96.145 6.0017C96.9272 5.48368 97.8127 5.14197 98.7402 5.00026C99.1406 4.9384 99.545 4.90498 99.9502 4.90026C100.812 4.90783 101.663 5.08882 102.454 5.43242C103.244 5.77603 103.957 6.27523 104.55 6.90026C104.613 6.96685 104.699 7.00633 104.79 7.01026H104.9C106.262 6.72108 107.571 6.22178 108.78 5.53026L108.87 5.48026C108.388 6.98527 107.384 8.26885 106.04 9.10026C107.343 8.90383 108.607 8.50927 109.79 7.93026Z" fill="white"/>
<g style="mix-blend-mode:multiply">
<path d="M171.06 12.2403C170.824 12.307 170.594 12.3906 170.37 12.4903C170.246 12.5457 170.126 12.6092 170.01 12.6803C169.818 12.7874 169.631 12.9042 169.45 13.0303C169.34 13.1203 169.23 13.2003 169.12 13.3003C169.01 13.4003 168.81 13.5903 168.66 13.7503C168.51 13.9103 168.54 13.8603 168.49 13.9203C168.44 13.9803 168.41 14.0503 168.37 14.1003C168.33 14.1503 168.21 14.3303 168.13 14.4403C168.05 14.5503 168.03 14.5903 167.98 14.6703C167.93 14.7503 167.89 14.8703 167.84 14.9703C167.799 15.0483 167.763 15.1284 167.73 15.2103L167.66 15.3603C167.58 15.5803 167.51 15.8103 167.45 16.0403C167.45 16.0403 167.45 16.0903 167.45 16.1103C167.401 16.3277 167.368 16.5482 167.35 16.7703C167.35 16.8703 167.35 16.9703 167.35 17.0803C167.335 17.27 167.335 17.4606 167.35 17.6503C167.35 17.7703 167.35 17.8803 167.4 17.9903C167.404 18.0635 167.404 18.137 167.4 18.2103C167.456 18.4858 167.532 18.7567 167.63 19.0203V19.0703L167.69 19.2103C167.79 19.447 167.911 19.6745 168.05 19.8903L168.17 20.0703L168.25 20.2003C168.4 20.4017 168.563 20.5922 168.74 20.7703L173 25.0403C172.78 25.0403 172.56 25.0403 172.33 25.0403C171.012 25.0299 169.719 24.6859 168.57 24.0403C167.905 23.6716 167.292 23.214 166.75 22.6803L172.75 28.7303C173.482 29.4637 174.352 30.0454 175.31 30.4418C176.267 30.8382 177.294 31.0416 178.33 31.0403C178.62 31.0552 178.91 31.0552 179.2 31.0403L179.48 30.9903C179.672 30.97 179.862 30.94 180.05 30.9003L180.37 30.8103L180.87 30.6703L181.19 30.5503L181.65 30.3603L181.96 30.2103L182.4 29.9603L182.68 29.8003L183.12 29.4803L183.34 29.3103C183.526 29.1677 183.703 29.0141 183.87 28.8503L183.96 28.7703C184.154 28.5768 184.338 28.3732 184.51 28.1603C184.513 28.1404 184.513 28.1202 184.51 28.1003C184.779 27.7713 185.02 27.42 185.23 27.0503C185.397 26.7468 185.544 26.4328 185.67 26.1103C185.674 26.077 185.674 26.0435 185.67 26.0103C185.673 25.9637 185.673 25.9169 185.67 25.8703C185.77 25.6099 185.85 25.3425 185.91 25.0703C185.913 25.027 185.913 24.9835 185.91 24.9403C185.98 24.6102 186.03 24.2763 186.06 23.9403C186.055 23.9104 186.055 23.8801 186.06 23.8503C186.06 23.6603 186.06 23.4803 186.06 23.2903C186.075 23.0205 186.075 22.7501 186.06 22.4803C186.033 22.1433 185.98 21.8089 185.9 21.4803L185.84 21.2203C185.77 20.9703 185.7 20.7303 185.61 20.4903V20.3403V20.2703C185.496 19.9797 185.366 19.6959 185.22 19.4203L185.12 19.2703C184.999 19.0475 184.862 18.8336 184.71 18.6303C184.683 18.5925 184.66 18.5523 184.64 18.5103L184.55 18.4103C184.341 18.1388 184.117 17.8784 183.88 17.6303L177.88 11.6303C178.119 11.8728 178.343 12.1299 178.55 12.4003L178.7 12.6203C178.85 12.8303 178.99 13.0403 179.12 13.2603L179.21 13.4103C179.358 13.6867 179.491 13.9704 179.61 14.2603C179.61 14.3303 179.66 14.4103 179.69 14.4803C179.77 14.7203 179.85 14.9603 179.91 15.2103C179.938 15.299 179.961 15.3891 179.98 15.4803C180.055 15.8098 180.108 16.1438 180.14 16.4803C180.155 16.7501 180.155 17.0205 180.14 17.2903C180.14 17.5003 180.14 17.7103 180.14 17.9103L175.88 13.6403C175.415 13.1654 174.859 12.7882 174.246 12.5306C173.633 12.2731 172.975 12.1404 172.31 12.1403C171.936 12.1429 171.564 12.1865 171.2 12.2703C171.154 12.2593 171.107 12.2493 171.06 12.2403ZM174.39 20.1503C174.48 20.0303 174.59 19.9103 174.69 19.8003C174.831 19.6379 174.985 19.4874 175.15 19.3503C175.251 19.2496 175.361 19.1592 175.48 19.0803C175.655 18.9463 175.843 18.8291 176.04 18.7303C176.16 18.6603 176.27 18.5903 176.4 18.5303C176.621 18.4354 176.848 18.3553 177.08 18.2903L177.42 18.1803C177.785 18.1047 178.157 18.0645 178.53 18.0603H178.58C179.165 18.0675 179.744 18.1792 180.29 18.3903C180.277 18.535 180.253 18.6787 180.22 18.8203C180.22 18.8803 180.22 18.9303 180.22 18.9903C180.15 19.2603 180.07 19.5303 179.98 19.7903L179.89 20.0403C179.764 20.3595 179.617 20.6702 179.45 20.9703V21.0303C179.238 21.3805 179.001 21.7147 178.74 22.0303L178.67 22.1203C178.49 22.3303 178.31 22.5403 178.12 22.7303L178.03 22.8103L177.5 23.2803C177.428 23.3392 177.351 23.3927 177.27 23.4403L176.83 23.7603L176.55 23.9303C176.41 24.0103 176.26 24.1003 176.11 24.1703L175.81 24.3203L175.34 24.5103L175.02 24.6303C174.86 24.6903 174.69 24.7303 174.52 24.7803L174.2 24.8603L173.76 24.9403C173.672 24.7085 173.598 24.4714 173.54 24.2303V24.0103C173.488 23.7097 173.462 23.4053 173.46 23.1003C173.469 22.7644 173.506 22.4299 173.57 22.1003C173.574 22.0771 173.574 22.0534 173.57 22.0303C173.641 21.74 173.734 21.4557 173.85 21.1803L173.97 20.9303C174.053 20.7496 174.15 20.5758 174.26 20.4103L174.39 20.1503Z" fill="#CCCCCC"/>
</g>
<g style="mix-blend-mode:multiply">
<path d="M165.48 36.0603C166.592 37.1325 167.975 37.8825 169.48 38.2303C172.333 38.6142 175.213 38.7647 178.09 38.6803C180.941 38.7231 183.792 38.6096 186.63 38.3403C187.118 38.2611 187.599 38.1475 188.07 38.0003L188.48 37.8403C188.784 37.7352 189.081 37.6116 189.37 37.4703L189.79 37.2403C190.05 37.0803 190.3 36.9103 190.54 36.7303L190.88 36.4703C191.169 36.2231 191.437 35.9522 191.68 35.6603C191.719 35.6261 191.756 35.5894 191.79 35.5503C192.062 35.216 192.303 34.8579 192.51 34.4803V34.4303C192.57 34.3103 192.62 34.1803 192.68 34.0603C192.74 33.9403 192.93 33.5603 193.03 33.2903C193.036 33.2572 193.036 33.2234 193.03 33.1903C193.161 32.8643 193.272 32.5303 193.36 32.1903C193.367 32.1204 193.367 32.0501 193.36 31.9803C193.39 31.865 193.414 31.7482 193.43 31.6303C193.43 31.6303 193.43 31.6303 193.43 31.5703C193.43 31.3569 193.46 31.1269 193.52 30.8803C193.525 30.8137 193.525 30.7468 193.52 30.6803C193.52 30.4503 193.57 30.2003 193.59 29.9303C193.595 29.9005 193.595 29.8701 193.59 29.8403C193.59 29.5403 193.64 29.2203 193.66 28.8403C193.66 28.7403 193.66 28.6303 193.66 28.5203C193.66 28.4103 193.66 28.0303 193.66 27.7703C193.66 27.5103 193.66 27.5003 193.66 27.3703V26.6003C193.66 26.4703 193.66 26.3403 193.66 26.2003C193.66 25.8903 193.66 25.5803 193.66 25.2603V25.0003C193.66 24.6003 193.66 24.2003 193.66 23.7903V21.3503C193.66 21.2203 193.66 21.0903 193.66 20.9603C193.66 20.6603 193.66 20.3703 193.66 20.0803V19.8403C193.66 19.4703 193.66 19.1203 193.66 18.7803C193.66 18.7103 193.66 18.6503 193.66 18.5803C193.66 18.3103 193.66 18.0603 193.66 17.8103C193.66 17.7103 193.66 17.6203 193.66 17.5303C193.66 17.4403 193.66 17.1303 193.66 16.9503C193.66 16.7703 193.66 16.7803 193.66 16.6903C193.66 16.6003 193.66 16.3403 193.66 16.1803C193.66 16.0203 193.66 16.0603 193.66 16.0103C193.66 15.9603 193.66 15.6603 193.66 15.5203C193.62 15.0681 193.543 14.6199 193.43 14.1803C193.43 14.0403 193.35 13.9103 193.31 13.7703C193.27 13.6303 193.19 13.3203 193.11 13.1103C193.03 12.9003 193.04 12.9703 193.01 12.8903C192.98 12.8103 192.9 12.6603 192.85 12.5403C192.71 12.2603 192.55 11.9803 192.38 11.7103C192.32 11.6103 192.26 11.5103 192.19 11.4103C192.12 11.3103 192.13 11.3003 192.09 11.2603C191.859 10.9454 191.605 10.648 191.33 10.3703L185.33 4.37026C185.642 4.67812 185.927 5.01273 186.18 5.37026L186.38 5.67026C186.553 5.93919 186.707 6.21987 186.84 6.51026C186.9 6.62026 186.95 6.74026 187 6.85026C187.12 7.13662 187.22 7.4306 187.3 7.73026C187.3 7.87026 187.39 8.00026 187.43 8.14026C187.533 8.5853 187.61 9.0361 187.66 9.49026C187.66 9.63026 187.66 9.81026 187.66 10.0103C187.655 10.0735 187.655 10.137 187.66 10.2003C187.66 10.3503 187.66 10.5103 187.66 10.6903L183.28 6.29026C182.429 5.46746 181.334 4.94139 180.16 4.79026C177.584 4.54489 174.997 4.44473 172.41 4.49026C169.33 4.49026 166.26 4.58026 164.9 4.72026C164.542 4.76655 164.187 4.8401 163.84 4.94026L163.53 5.04026C163.309 5.11479 163.092 5.2016 162.88 5.30026L162.56 5.47026C162.37 5.58026 162.2 5.69026 162.03 5.81026L161.75 6.03026C161.58 6.17026 161.44 6.33026 161.29 6.48026L161.13 6.65026C161.107 6.67785 161.087 6.70805 161.07 6.74026C160.98 6.85026 160.9 6.98026 160.82 7.10026C160.74 7.22026 160.69 7.28026 160.63 7.38026C160.628 7.41691 160.628 7.45362 160.63 7.49026C160.577 7.59079 160.531 7.6943 160.49 7.80026C160.432 7.90305 160.382 8.01001 160.34 8.12026C160.34 8.17026 160.34 8.23026 160.34 8.29026L160.22 8.67026C160.22 8.76026 160.16 8.85026 160.14 8.95026L160.05 9.39026C160.05 9.56026 160.05 9.77026 159.98 9.99026C159.975 10.0768 159.975 10.1637 159.98 10.2503C159.98 10.3903 159.98 10.5203 159.98 10.6803V10.7503C159.98 10.8203 159.98 10.9103 159.98 10.9903C159.98 11.0703 159.98 11.3803 159.98 11.5903C159.98 11.8003 159.98 11.8003 159.98 11.9103C159.98 12.0203 159.98 12.3203 159.98 12.5403C159.98 12.7603 159.98 12.7703 159.98 12.9003V13.6003C159.98 13.7103 159.98 13.8203 159.98 13.9303C159.98 14.2803 159.98 14.6403 159.98 15.0003C159.985 15.0668 159.985 15.1337 159.98 15.2003C159.98 15.5003 159.98 15.8103 159.98 16.1203V16.5303C159.98 16.7703 159.98 17.0103 159.98 17.2503V18.8203C159.98 19.1403 159.98 19.4503 159.98 19.7603V19.9103C159.98 20.2703 159.98 20.6203 159.98 20.9603C159.985 21.0502 159.985 21.1403 159.98 21.2303C159.98 21.4803 159.98 21.7103 159.98 21.9403C159.98 22.1703 159.98 22.1603 159.98 22.2603C159.98 22.3603 159.98 22.6603 159.98 22.8503C159.98 23.0403 159.98 23.0503 159.98 23.1403C159.98 23.2303 159.98 23.5203 159.98 23.7003C159.98 23.8803 159.98 23.8303 159.98 23.9003C159.98 23.9703 159.98 24.3203 159.98 24.5003C159.98 24.7103 159.98 24.8803 160.04 25.0203C160.098 25.4273 160.202 25.8265 160.35 26.2103C160.344 26.2601 160.344 26.3104 160.35 26.3603C160.35 26.3603 160.35 26.4303 160.4 26.4703C160.552 26.8239 160.743 27.1594 160.97 27.4703C160.97 27.4703 160.97 27.4703 160.97 27.5203C161.106 27.6993 161.253 27.8696 161.41 28.0303L165.83 32.4603C165.007 32.4305 164.188 32.3335 163.38 32.1703C162.97 32.0603 162.58 31.9403 162.21 31.8003C161.181 31.393 160.245 30.7806 159.46 30.0003L165.48 36.0603ZM187.88 11.2403C187.875 11.3135 187.875 11.387 187.88 11.4603C187.88 11.5703 187.88 11.6703 187.88 11.7803C187.88 11.8903 187.88 12.2403 187.88 12.4803V12.7403C187.88 12.9603 187.88 13.2003 187.88 13.4303L185.14 10.6903C185.61 10.6903 186.01 10.7603 186.31 10.8003C186.849 10.8836 187.376 11.0313 187.88 11.2403ZM181.62 10.5403C181.62 10.5403 181.57 10.5903 181.53 10.6003H181.44C181.227 10.688 181 10.7354 180.77 10.7403C180.468 10.7263 180.173 10.6406 179.91 10.4903L181.62 10.5403ZM178.62 10.5403H179.76L185.49 16.2903C185.835 16.6355 186.302 16.8297 186.79 16.8303C187.02 16.8286 187.247 16.7846 187.46 16.7003H187.55C187.694 16.6338 187.832 16.5534 187.96 16.4603V16.5703C187.96 16.8603 187.96 17.1403 187.96 17.4203V17.8003C187.96 18.2003 187.96 18.6003 187.96 18.9903C187.965 19.0702 187.965 19.1503 187.96 19.2303C187.96 19.5503 187.96 19.8703 187.96 20.1803C187.96 20.3103 187.96 20.4403 187.96 20.5703C187.96 20.7003 187.96 21.0903 187.96 21.3403C187.96 21.5903 187.96 21.6103 187.96 21.7403V22.5003C187.96 22.6103 187.96 22.7103 187.96 22.8203C187.96 23.1603 187.96 23.4803 187.9 23.8203C187.9 23.8203 187.9 23.8803 187.9 23.9103C187.9 24.1803 187.85 24.4303 187.83 24.6703C187.83 24.7303 187.83 24.8003 187.83 24.8603C187.83 25.1103 187.77 25.3503 187.74 25.5503C187.74 25.5503 187.74 25.5503 187.74 25.6103C187.714 25.8021 187.677 25.9924 187.63 26.1803C187.52 26.5703 187.39 26.9503 187.25 27.3103C187.11 27.6703 187.02 27.8203 186.89 28.0703C186.76 28.3203 186.76 28.3603 186.69 28.4903C186.476 28.8659 186.232 29.2238 185.96 29.5603C185.925 29.6082 185.885 29.6519 185.84 29.6903C185.591 29.9773 185.324 30.2479 185.04 30.5003L184.7 30.7603C184.461 30.9507 184.207 31.1213 183.94 31.2703C183.805 31.3549 183.664 31.4317 183.52 31.5003C183.24 31.6403 182.95 31.7603 182.64 31.8803L182 32.0003C181.529 32.1475 181.048 32.2611 180.56 32.3403C177.719 32.6191 174.864 32.736 172.01 32.6903C170.01 32.6903 168.01 32.6903 166.44 32.5603C166.401 32.4795 166.367 32.3959 166.34 32.3103C166.203 31.9233 166.099 31.5251 166.03 31.1203C166.03 30.9803 166.03 30.8003 165.97 30.6003C165.91 30.4003 165.97 30.2103 165.97 29.9803C165.97 29.9203 165.97 29.8503 165.97 29.7803C165.97 29.7103 165.97 29.4303 165.97 29.2303C165.97 29.0303 165.97 29.0303 165.97 28.9303C165.97 28.8303 165.97 28.5503 165.97 28.3503C165.97 28.1503 165.97 28.1403 165.97 28.0203C165.97 27.9003 165.97 27.5803 165.97 27.3503C165.97 27.1203 165.97 27.1403 165.97 27.0303C165.97 26.7003 165.97 26.3603 165.97 26.0303V25.8003C165.97 25.5203 165.97 25.2203 165.97 24.9303V23.7003C165.97 23.5603 165.97 23.4303 165.97 23.2903V22.1503C165.97 21.8303 165.97 21.5203 165.97 21.2003V21.0003V19.9203C165.965 19.8237 165.965 19.7269 165.97 19.6303C165.97 19.3803 165.97 19.1303 165.97 18.8803C165.97 18.6303 165.97 18.6603 165.97 18.5503V17.9003C165.97 17.8003 165.97 17.6903 165.97 17.5903C165.97 17.4903 165.97 17.1703 165.97 16.9703C165.97 16.7703 165.97 16.8203 165.97 16.7503C165.97 16.6803 165.97 16.4003 165.97 16.2303C165.97 16.0603 165.97 16.0603 165.97 15.9903C165.97 15.7603 165.97 15.5603 166.05 15.3903C166.09 15.1434 166.147 14.8995 166.22 14.6603C166.22 14.5403 166.29 14.4103 166.33 14.2903C166.37 14.1703 166.46 13.9503 166.53 13.7903C166.6 13.6303 166.62 13.5803 166.68 13.4803C166.753 13.3459 166.833 13.2157 166.92 13.0903C167 12.9703 167.07 12.8503 167.16 12.7403C167.25 12.6303 167.31 12.5703 167.39 12.4803C167.53 12.3204 167.68 12.1701 167.84 12.0303C167.932 11.9514 168.029 11.8779 168.13 11.8103C168.296 11.6855 168.469 11.5719 168.65 11.4703C168.757 11.4076 168.867 11.3509 168.98 11.3003C169.188 11.2016 169.402 11.1148 169.62 11.0403L169.93 10.9303C170.282 10.8382 170.639 10.7681 171 10.7203C172.47 10.6003 175.54 10.5103 178.63 10.5103L178.62 10.5403Z" fill="#CCCCCC"/>
</g>
<path d="M180.79 7.05026C181.033 7.05023 181.273 7.09854 181.497 7.19238C181.721 7.28621 181.925 7.4237 182.095 7.59682C182.265 7.76994 182.399 7.97523 182.49 8.20074C182.58 8.42624 182.624 8.66743 182.62 8.91026C182.62 9.27814 182.511 9.63775 182.307 9.94362C182.102 10.2495 181.812 10.4879 181.472 10.6287C181.132 10.7695 180.758 10.8063 180.397 10.7345C180.036 10.6628 179.705 10.4856 179.445 10.2255C179.185 9.96536 179.008 9.63393 178.936 9.27313C178.864 8.91233 178.901 8.53834 179.042 8.19847C179.183 7.8586 179.421 7.56811 179.727 7.36373C180.033 7.15935 180.392 7.05026 180.76 7.05026H180.79Z" fill="white"/>
<path d="M187.78 9.44026C188.01 11.8703 188.16 23.4403 187.44 26.1003C187.088 27.7165 186.239 29.1823 185.013 30.2922C183.786 31.4022 182.243 32.1008 180.6 32.2903C177.759 32.5691 174.904 32.686 172.05 32.6403C169.172 32.7225 166.293 32.5686 163.44 32.1803C161.83 31.8487 160.366 31.0162 159.258 29.8019C158.149 28.5877 157.454 27.0539 157.27 25.4203C156.86 22.8103 156.81 10.6703 157.57 8.03026C157.946 6.45953 158.795 5.04196 160.002 3.96897C161.209 2.89599 162.716 2.21929 164.32 2.03026C166.897 1.74568 169.489 1.62877 172.08 1.68026C174.97 1.68026 177.89 1.76026 179.65 1.85026C181.754 1.90346 183.766 2.72928 185.3 4.17026C186.748 5.56093 187.632 7.43785 187.78 9.44026ZM184.78 24.9103C185.197 19.8511 185.271 14.7694 185 9.70026C184.943 8.45876 184.444 7.27856 183.593 6.37268C182.742 5.4668 181.596 4.89492 180.36 4.76026C177.784 4.51489 175.197 4.41473 172.61 4.46026C169.53 4.46026 166.46 4.55026 165.1 4.70026C163.851 4.76209 162.664 5.2638 161.749 6.11661C160.834 6.96943 160.25 8.11839 160.1 9.36026C159.684 14.5641 159.65 19.7915 160 25.0003C160.101 26.0373 160.524 27.017 161.208 27.8023C161.893 28.5876 162.806 29.1393 163.82 29.3803C166.578 29.7774 169.365 29.9313 172.15 29.8403C175.4 29.8403 178.59 29.7403 179.79 29.6003C181.045 29.5413 182.238 29.0367 183.155 28.1771C184.071 27.3174 184.651 26.1591 184.79 24.9103" fill="white"/>
<path d="M172.54 9.21026C173.585 9.20876 174.62 9.41563 175.584 9.81877C176.548 10.2219 177.422 10.8132 178.155 11.5581C178.887 12.303 179.464 13.1865 179.852 14.157C180.239 15.1275 180.429 16.1655 180.41 17.2103C180.394 19.3216 179.544 21.341 178.046 22.8284C176.547 24.3157 174.522 25.1503 172.41 25.1503C171.365 25.1518 170.33 24.9449 169.366 24.5418C168.402 24.1386 167.528 23.5473 166.796 22.8024C166.063 22.0575 165.486 21.174 165.099 20.2035C164.711 19.233 164.522 18.195 164.54 17.1503C164.556 15.0389 165.406 13.0195 166.904 11.5322C168.403 10.0448 170.429 9.2102 172.54 9.21026ZM172.42 22.2903C173.779 22.2905 175.083 21.7571 176.051 20.805C177.02 19.853 177.577 18.5584 177.6 17.2003C177.613 16.531 177.494 15.8656 177.25 15.2424C177.006 14.6191 176.641 14.0501 176.177 13.568C175.712 13.0859 175.157 12.7002 174.544 12.4329C173.93 12.1656 173.269 12.022 172.6 12.0103C171.242 12.0101 169.938 12.5434 168.969 13.4955C168 14.4475 167.444 15.7421 167.42 17.1003C167.407 17.7695 167.526 18.4349 167.77 19.0581C168.014 19.6814 168.379 20.2504 168.843 20.7325C169.308 21.2146 169.863 21.6003 170.477 21.8676C171.09 22.1349 171.751 22.2786 172.42 22.2903Z" fill="white"/>
</svg>
